#!OML:ASF H:\Dans Jumps\Project 1\Capture day 1\Session 1\subject.ASF
:FULLY-SPECIFIED
:DEGREES
645
root 0.313042 17.1913 -8.64266 13.5274 -2.51825 -0.661506
lowerback 9.40375 0.0218244 -0.60153
upperback 6.90565 -0.0300221 1.57024
thorax 1.89993 -0.0742389 1.96354
lowerneck -14.6291 0.624578 -1.12507
upperneck 27.0681 0.984087 0.639928
head 11.173 0.401742 0.559619
rclavicle -4.37326e-015 -1.88845e-014
rhumerus -18.4816 -5.93338 -83.966
rradius 27.3495
rwrist 28.073
rhand -19.1678 -26.1903
rfingers 7.12502
rthumb 7.14314 -56.0497
lclavicle -4.37326e-015 -1.88845e-014
lhumerus -15.8225 -11.2529 91.4573
lradius 21.4309
lwrist 15.5655
lhand -28.735 -4.96107
lfingers 7.12502
lthumb -2.09579 25.0084
rfemur -36.6597 -3.14539 19.3444
rtibia 40.2302
rfoot -15.1178 -2.3121
rtoes 13.9929
lfemur -34.8221 7.19279 -20.1592
ltibia 36.8928
lfoot -13.6072 6.00647
ltoes 4.93103
646
root 0.309556 17.1968 -8.63894 13.5639 -2.47371 -0.677764
lowerback 9.37946 0.0246708 -0.618617
upperback 6.90174 -0.027393 1.58448
thorax 1.90913 -0.0738193 1.98766
lowerneck -14.6377 0.589859 -1.15099
upperneck 27.1422 0.943592 0.63588
head 11.2032 0.380033 0.557592
rclavicle -4.37326e-015 7.35503e-015
rhumerus -18.5678 -5.87177 -83.989
rradius 27.2728
rwrist 28.1555
rhand -19.0954 -26.1531
rfingers 7.12502
rthumb 7.2131 -56.0102
lclavicle -4.37326e-015 7.35503e-015
lhumerus -15.852 -11.3668 91.5012
lradius 21.4895
lwrist 15.615
lhand -28.811 -4.98218
lfingers 7.12502
lthumb -2.16914 24.9865
rfemur -36.6053 -3.11204 19.37
rtibia 40.1061
rfoot -15.0864 -2.38566
rtoes 13.9603
lfemur -34.7941 7.15843 -20.1271
ltibia 36.7884
lfoot -13.584 5.99923
ltoes 4.95959
647
root 0.305809 17.2021 -8.63516 13.5947 -2.43521 -0.69555
lowerback 9.35597 0.0297356 -0.634826
upperback 6.89707 -0.0217614 1.59617
thorax 1.91694 -0.0718055 2.00843
lowerneck -14.6545 0.559235 -1.16574
upperneck 27.2234 0.908636 0.622718
head 11.2379 0.360793 0.551159
rclavicle -8.74653e-015 7.55382e-015
rhumerus -18.653 -5.82593 -84.0131
rradius 27.1941
rwrist 28.247
rhand -19.0418 -26.113
rfingers 7.12502
rthumb 7.26482 -55.9683
lclavicle -8.74653e-015 7.55382e-015
lhumerus -15.8819 -11.4614 91.5411
lradius 21.5478
lwrist 15.6789
lhand -28.8014 -4.86801
lfingers 7.12502
lthumb -2.15994 25.1008
rfemur -36.5472 -3.07218 19.3957
rtibia 39.9847
rfoot -15.0533 -2.45524
rtoes 13.9438
lfemur -34.7594 7.12951 -20.0923
ltibia 36.6862
lfoot -13.563 5.99322
ltoes 4.99041
648
root 0.301797 17.2071 -8.63142 13.6215 -2.40031 -0.718775
lowerback 9.33203 0.0346998 -0.646075
upperback 6.89311 -0.0159338 1.60646
thorax 1.92572 -0.0695081 2.02493
lowerneck -14.6799 0.533613 -1.17305
upperneck 27.3071 0.880688 0.603299
head 11.2753 0.34467 0.542159
rclavicle -3.57812e-015 -9.54166e-015
rhumerus -18.7321 -5.78793 -84.0406
rradius 27.1171
rwrist 28.3434
rhand -19 -26.0739
rfingers 7.12502
rthumb 7.30516 -55.9278
lclavicle -3.57812e-015 -9.54166e-015
lhumerus -15.9012 -11.5183 91.5686
lradius 21.6174
lwrist 15.782
lhand -28.6475 -4.54394
lfingers 7.12502
lthumb -2.01131 25.4263
rfemur -36.4899 -3.02788 19.4263
rtibia 39.8701
rfoot -15.0197 -2.51946
rtoes 13.9442
lfemur -34.7224 7.10129 -20.0487
ltibia 36.5899
lfoot -13.5415 5.9918
ltoes 5.01898
649
root 0.297676 17.2117 -8.62766 13.644 -2.36636 -0.74283
lowerback 9.30943 0.0383635 -0.651754
upperback 6.88823 -0.0114027 1.61212
thorax 1.93281 -0.0675439 2.0336
lowerneck -14.7011 0.513766 -1.1734
upperneck 27.3835 0.859721 0.581274
head 11.3091 0.332111 0.531874
rclavicle -4.37326e-015 1.43125e-014
rhumerus -18.8054 -5.76328 -84.073
rradius 27.0415
rwrist 28.445
rhand -18.9564 -26.0424
rfingers 7.12502
rthumb 7.34725 -55.8948
lclavicle -4.37326e-015 1.43125e-014
lhumerus -15.9199 -11.5594 91.5868
lradius 21.6873
lwrist 15.893
lhand -28.318 -3.97818
lfingers 7.12502
lthumb -1.69302 25.9948
rfemur -36.4346 -2.99017 19.4583
rtibia 39.7653
rfoot -14.9871 -2.56875
rtoes 13.9677
lfemur -34.6836 7.0704 -20.0018
ltibia 36.4992
lfoot -13.5195 5.99472
ltoes 5.04321
650
root 0.293458 17.216 -8.62388 13.6651 -2.33262 -0.763423
lowerback 9.28471 0.0401481 -0.657122
upperback 6.88254 -0.00928989 1.6131
thorax 1.9403 -0.0666674 2.03743
lowerneck -14.7134 0.496819 -1.17714
upperneck 27.4481 0.841097 0.567982
head 11.3365 0.321395 0.52554
rclavicle 2.38542e-015 1.98785e-015
rhumerus -18.8689 -5.75179 -84.1094
rradius 26.9658
rwrist 28.5497
rhand -18.913 -26.0146
rfingers 7.12502
rthumb 7.38913 -55.8656
lclavicle 2.38542e-015 1.98785e-015
lhumerus -15.9396 -11.5978 91.5996
lradius 21.7439
lwrist 15.9901
lhand -27.9592 -3.4078
lfingers 7.12502
lthumb -1.34654 26.5677
rfemur -36.3851 -2.96432 19.4884
rtibia 39.6719
rfoot -14.9575 -2.60164
rtoes 14.0167
lfemur -34.6458 7.03412 -19.9565
ltibia 36.413
lfoot -13.4968 6.00275
ltoes 5.06576
651
root 0.289239 17.2198 -8.61992 13.6827 -2.30057 -0.773144
lowerback 9.25871 0.0400669 -0.669415
upperback 6.87574 -0.0100483 1.60806
thorax 1.94743 -0.0673198 2.03911
lowerneck -14.7156 0.483966 -1.18268
upperneck 27.5038 0.827085 0.559868
head 11.3585 0.313247 0.521929
rclavicle 1.59028e-015 -4.77083e-015
rhumerus -18.9244 -5.75508 -84.1477
rradius 26.8884
rwrist 28.6602
rhand -18.8724 -25.9903
rfingers 7.12502
rthumb 7.42828 -55.8398
lclavicle 1.59028e-015 -4.77083e-015
lhumerus -15.9667 -11.6342 91.6099
lradius 21.7895
lwrist 16.0671
lhand -27.7761 -3.1218
lfingers 7.12502
lthumb -1.16963 26.8547
rfemur -36.3396 -2.95524 19.5089
rtibia 39.5912
rfoot -14.9335 -2.61454
rtoes 14.0769
lfemur -34.6054 6.9942 -19.9221
ltibia 36.3295
lfoot -13.4746 6.01397
ltoes 5.08922
652
root 0.285077 17.2234 -8.61585 13.6982 -2.27199 -0.773409
lowerback 9.22885 0.0386534 -0.688612
upperback 6.86911 -0.012998 1.59844
thorax 1.95696 -0.0692244 2.04009
lowerneck -14.7042 0.472981 -1.19838
upperneck 27.5466 0.814378 0.565033
head 11.3726 0.306342 0.524955
rclavicle 1.0138e-014 -1.19271e-015
rhumerus -18.9668 -5.77463 -84.1871
rradius 26.808
rwrist 28.7717
rhand -18.8322 -25.9745
rfingers 7.12502
rthumb 7.46712 -55.8227
lclavicle 1.0138e-014 -1.19271e-015
lhumerus -15.9962 -11.6584 91.6171
lradius 21.8264
lwrist 16.1282
lhand -27.6446 -2.93041
lfingers 7.12502
lthumb -1.04266 27.0468
rfemur -36.2988 -2.96249 19.5219
rtibia 39.5208
rfoot -14.9146 -2.60938
rtoes 14.1386
lfemur -34.5634 6.95447 -19.8987
ltibia 36.2481
lfoot -13.4538 6.02776
ltoes 5.10661
653
root 0.280999 17.2267 -8.61166 13.7106 -2.24549 -0.767195
lowerback 9.19553 0.0360611 -0.711999
upperback 6.86389 -0.0177716 1.58634
thorax 1.96993 -0.0721674 2.04099
lowerneck -14.6915 0.464764 -1.21834
upperneck 27.5873 0.805162 0.575511
head 11.3856 0.301222 0.531125
rclavicle 6.75868e-015 1.98785e-016
rhumerus -18.9979 -5.80292 -84.2266
rradius 26.73
rwrist 28.8731
rhand -18.7929 -25.9695
rfingers 7.12502
rthumb 7.50503 -55.8163
lclavicle 6.75868e-015 1.98785e-016
lhumerus -16.0305 -11.6848 91.6273
lradius 21.851
lwrist 16.1663
lhand -27.6583 -2.96913
lfingers 7.12502
lthumb -1.05588 27.008
rfemur -36.2587 -2.98545 19.5311
rtibia 39.4578
rfoot -14.9013 -2.59025
rtoes 14.1875
lfemur -34.5187 6.91588 -19.8833
ltibia 36.1688
lfoot -13.4349 6.04291
ltoes 5.12086
654
root 0.276984 17.2298 -8.60742 13.7191 -2.21842 -0.762448
lowerback 9.16153 0.0315539 -0.733086
upperback 6.85944 -0.0249216 1.57567
thorax 1.98419 -0.0762667 2.04224
lowerneck -14.6787 0.460092 -1.24216
upperneck 27.6284 0.80126 0.588496
head 11.3987 0.29838 0.539616
rclavicle -1.78906e-015 -1.25234e-014
rhumerus -19.0195 -5.83374 -84.2642
rradius 26.6542
rwrist 28.9579
rhand -18.7549 -25.9739
rfingers 7.12502
rthumb 7.54173 -55.8195
lclavicle -1.78906e-015 -1.25234e-014
lhumerus -16.0645 -11.6948 91.6385
lradius 21.8728
lwrist 16.198
lhand -27.6236 -2.91396
lfingers 7.12502
lthumb -1.02236 27.0633
rfemur -36.2151 -3.02025 19.5451
rtibia 39.3971
rfoot -14.8925 -2.56279
rtoes 14.222
lfemur -34.472 6.87872 -19.8664
ltibia 36.0938
lfoot -13.4197 6.05887
ltoes 5.12838
655
root 0.273066 17.2329 -8.6032 13.7244 -2.19136 -0.762591
lowerback 9.12816 0.0264024 -0.74804
upperback 6.85503 -0.0325213 1.56707
thorax 1.99816 -0.080424 2.04222
lowerneck -14.6739 0.458871 -1.26325
upperneck 27.6785 0.802771 0.597592
head 11.4168 0.297701 0.547065
rclavicle -1.11319e-014 -1.37161e-014
rhumerus -19.0348 -5.85879 -84.3002
rradius 26.5847
rwrist 29.0127
rhand -18.7275 -25.9784
rfingers 7.12502
rthumb 7.56818 -55.823
lclavicle -1.11319e-014 -1.37161e-014
lhumerus -16.101 -11.6966 91.6534
lradius 21.8868
lwrist 16.2162
lhand -27.643 -2.93423
lfingers 7.12502
lthumb -1.04111 27.043
rfemur -36.1674 -3.06328 19.567
rtibia 39.3359
rfoot -14.8872 -2.52963
rtoes 14.247
lfemur -34.4253 6.84508 -19.8448
ltibia 36.0257
lfoot -13.4077 6.07435
ltoes 5.13587
656
root 0.269179 17.2357 -8.59915 13.7269 -2.16109 -0.7736
lowerback 9.09678 0.0195774 -0.752444
upperback 6.85115 -0.0416721 1.56357
thorax 2.01165 -0.0851031 2.04166
lowerneck -14.6756 0.460857 -1.28353
upperneck 27.735 0.809509 0.603959
head 11.4386 0.299057 0.554175
rclavicle 4.27387e-015 -8.74653e-015
rhumerus -19.0463 -5.8672 -84.3349
rradius 26.529
rwrist 29.0302
rhand -18.7077 -25.9814
rfingers 7.12502
rthumb 7.5873 -55.8253
lclavicle 4.27387e-015 -8.74653e-015
lhumerus -16.1375 -11.6928 91.6733
lradius 21.8918
lwrist 16.2212
lhand -27.7017 -3.0027
lfingers 7.12502
lthumb -1.09782 26.9742
rfemur -36.1152 -3.11079 19.6034
rtibia 39.2728
rfoot -14.8849 -2.49624
rtoes 14.2652
lfemur -34.3821 6.81313 -19.8111
ltibia 35.9679
lfoot -13.399 6.09091
ltoes 5.13676
